<?xml version="1.0" encoding="UTF-8" standalone="no"?>
<!-- Created with Inkscape (http://www.inkscape.org/) -->

<svg
   xmlns:dc="http://purl.org/dc/elements/1.1/"
   xmlns:cc="http://creativecommons.org/ns#"
   xmlns:rdf="http://www.w3.org/1999/02/22-rdf-syntax-ns#"
   xmlns:svg="http://www.w3.org/2000/svg"
   xmlns="http://www.w3.org/2000/svg"
   xmlns:sodipodi="http://sodipodi.sourceforge.net/DTD/sodipodi-0.dtd"
   xmlns:inkscape="http://www.inkscape.org/namespaces/inkscape"
   width="420.8111"
   height="378.9978"
   id="svg2"
   version="1.1"
   inkscape:version="0.48.4 r9939"
   sodipodi:docname="menstrual_pad.svg">
  <defs
     id="defs4" />
  <sodipodi:namedview
     id="base"
     pagecolor="#ffffff"
     bordercolor="#666666"
     borderopacity="1.0"
     inkscape:pageopacity="0.0"
     inkscape:pageshadow="2"
     inkscape:zoom="0.64689945"
     inkscape:cx="607.20622"
     inkscape:cy="91.220405"
     inkscape:document-units="px"
     inkscape:current-layer="layer1"
     showgrid="false"
     showguides="true"
     inkscape:guide-bbox="true"
     inkscape:window-width="1280"
     inkscape:window-height="749"
     inkscape:window-x="0"
     inkscape:window-y="26"
     inkscape:window-maximized="1"
     fit-margin-top="0"
     fit-margin-left="0"
     fit-margin-right="0"
     fit-margin-bottom="0" />
  <metadata
     id="metadata7">
    <rdf:RDF>
      <cc:Work
         rdf:about="">
        <dc:format>image/svg+xml</dc:format>
        <dc:type
           rdf:resource="http://purl.org/dc/dcmitype/StillImage" />
      </cc:Work>
    </rdf:RDF>
  </metadata>
  <g
     inkscape:label="Layer 1"
     inkscape:groupmode="layer"
     id="layer1"
     transform="translate(-188.31237,-429.48427)">
    <g
       id="g3092"
       transform="translate(-272.06701,-114.39181)">
      <path
         sodipodi:nodetypes="sssccscccss"
         inkscape:connector-curvature="0"
         id="path3038"
         d="m 668.5,579.1875 c -66.14723,-0.65294 -61.82976,72.0632 -117.75,88.75 -41.61941,12.41938 -54.10082,45.88277 -50.6875,75.125 2.92503,25.05901 22.42735,45.2927 46.0625,53.71875 1.7842,0.7129 3.57269,1.36321 4.93932,1.77408 55.92024,16.6868 51.28845,89.66011 117.43568,89.00717 72.4572,-0.71523 51.12106,-71.51279 119.11504,-88.35384 4.19059,-1.2777 8.10594,-2.53679 11.38496,-4.11491 27.56956,-11.58421 47.69563,-42.00806 42.09375,-72.375 C 835.752,689.04533 811.19062,672.75885 787.6875,666.9375 719.69352,650.09645 740.9572,579.90273 668.5,579.1875 z"
         style="fill:#ffffff;stroke:#000000;stroke-width:1px;stroke-linecap:butt;stroke-linejoin:miter;stroke-opacity:1" />
      <path
         id="path2996"
         d="m 568.03125,669 c -30.53519,0 -64.71875,27.25095 -64.71875,63.03125 0,0.28762 0.0283,0.55932 0.0313,0.84375 -0.004,0.29484 -0.0313,0.57674 -0.0313,0.875 0,35.7803 34.18356,63.03125 64.71875,63.03125 33.73949,0 39.58387,-15.9725 102,-14.90625 0.37117,0.006 0.71856,-0.008 1.09375,0 62.41613,-1.06625 68.26051,14.90625 102,14.90625 30.53519,0 64.71875,-27.25095 64.71875,-63.03125 0,-0.29826 -0.0277,-0.58016 -0.0313,-0.875 0.003,-0.28443 0.0313,-0.55613 0.0313,-0.84375 C 837.84375,696.25095 803.66019,669 773.125,669 c -33.73949,0 -39.58387,15.9725 -102,14.90625 -0.37117,-0.006 -0.71856,0.008 -1.09375,0 C 607.61512,684.9725 601.77074,669 568.03125,669 z"
         style="fill:none;stroke:#000000;stroke-width:1px;stroke-linecap:butt;stroke-linejoin:miter;stroke-opacity:1"
         inkscape:connector-curvature="0" />
      <path
         d="m 671.69191,852.33026 c 0,1.50922 -1.22347,2.73268 -2.73268,2.73268 -1.50922,0 -2.73268,-1.22346 -2.73268,-2.73268 0,-1.50921 1.22346,-2.73268 2.73268,-2.73268 1.50921,0 2.73268,1.22347 2.73268,2.73268 z"
         sodipodi:ry="2.7326765"
         sodipodi:rx="2.7326765"
         sodipodi:cy="852.33026"
         sodipodi:cx="668.95923"
         id="path3043"
         style="fill:#000000;fill-opacity:1;stroke:none"
         sodipodi:type="arc" />
      <path
         transform="translate(0,-240.47554)"
         sodipodi:type="arc"
         style="fill:#000000;fill-opacity:1;stroke:none"
         id="path3045"
         sodipodi:cx="668.95923"
         sodipodi:cy="852.33026"
         sodipodi:rx="2.7326765"
         sodipodi:ry="2.7326765"
         d="m 671.69191,852.33026 c 0,1.50922 -1.22347,2.73268 -2.73268,2.73268 -1.50922,0 -2.73268,-1.22346 -2.73268,-2.73268 0,-1.50921 1.22346,-2.73268 2.73268,-2.73268 1.50921,0 2.73268,1.22347 2.73268,2.73268 z" />
    </g>
  </g>
</svg>
